<?xml version="1.0" encoding="UTF-8"?>
<svg version="1.1" xmlns="http://www.w3.org/2000/svg" width="528" height="660">
<path d="M0 0 C174.24 0 348.48 0 528 0 C528 217.8 528 435.6 528 660 C353.76 660 179.52 660 0 660 C0 442.2 0 224.4 0 0 Z " fill="#00C09E" transform="translate(0,0)"/>
<path d="M0 0 C174.24 0 348.48 0 528 0 C528 217.8 528 435.6 528 660 C353.76 660 179.52 660 0 660 C0 442.2 0 224.4 0 0 Z M173.5390625 24.84765625 C169.12922373 31.01471504 166.89433633 37.72661734 166.84178162 45.26446533 C166.8319928 46.3301474 166.82220398 47.39582947 166.81211853 48.49380493 C166.80636307 49.65761688 166.8006076 50.82142883 166.79467773 52.02050781 C166.78477814 53.25004181 166.77487854 54.47957581 166.76467896 55.74636841 C166.7385122 59.11378754 166.71664151 62.48118323 166.69667697 65.8486414 C166.67478903 69.36939591 166.64741409 72.89010765 166.62062073 76.41082764 C166.57073178 83.07595605 166.52577888 89.74110826 166.48259836 96.40628314 C166.43319351 103.99513517 166.37828744 111.58394427 166.32291877 119.17275476 C166.20915704 134.78179683 166.10230538 150.39087839 166 166 C163.02275427 166.99241524 161.07472855 167.12698429 157.96777344 167.13130188 C156.92777695 167.13531006 155.88778046 167.13931824 154.81626892 167.14344788 C153.67549393 167.14291916 152.53471893 167.14239044 151.359375 167.1418457 C150.15740982 167.14532013 148.95544464 167.14879456 147.71705627 167.15237427 C145.10120067 167.15973654 142.48539598 167.16540747 139.86953735 167.16866493 C135.72442478 167.17458558 131.57939761 167.19113867 127.43432617 167.21000671 C126.01341253 167.21634435 124.59249883 167.22266997 123.17158508 167.22898388 C122.45988977 167.23214969 121.74819447 167.2353155 121.01493263 167.23857725 C111.36690411 167.28058162 101.71891458 167.31359058 92.07080078 167.32592773 C85.56112228 167.3343372 79.05165477 167.35693759 72.54208183 167.3952834 C69.10157796 167.41495496 65.66138884 167.42747877 62.2208252 167.42244911 C58.37215772 167.42008693 54.52433436 167.44233613 50.67578125 167.4699707 C49.5512001 167.46336929 48.42661896 167.45676788 47.26795959 167.44996643 C35.27957513 167.59063396 25.92794125 171.31317039 17.31640625 179.625 C11.45733529 185.93701659 7.89204826 193.92903281 7.85955811 202.57388306 C7.85384796 203.48733994 7.84813782 204.40079681 7.84225464 205.3419342 C7.84113678 206.33720627 7.84001892 207.33247833 7.83886719 208.35791016 C7.83390228 209.41222733 7.82893738 210.46654449 7.82382202 211.55281067 C7.80919675 215.04823459 7.80239397 218.54361297 7.796875 222.0390625 C7.79111916 224.47887167 7.78536148 226.91868083 7.77960205 229.35848999 C7.7690878 234.48476369 7.76324945 239.61102172 7.75976562 244.73730469 C7.75431248 251.26198754 7.73035477 257.78645837 7.70179367 264.31107521 C7.68302787 269.3593096 7.67795409 274.40749465 7.67642975 279.45576096 C7.67342863 281.85797649 7.66548758 284.26019169 7.65224457 286.66237259 C7.59655917 297.55008618 7.55174693 308.34198451 9.27050781 319.11865234 C9.37856121 319.8109878 9.48661461 320.50332325 9.59794235 321.21663857 C11.17048309 329.68616569 15.12673474 336.79105591 22 342 C32.24838615 347.86065048 42.13490169 349.29785914 53.77441406 349.28710938 C55.49072021 349.29735893 55.49072021 349.29735893 57.24169922 349.30781555 C59.71173406 349.3213461 62.18179644 349.33043613 64.6518631 349.33552551 C68.56062991 349.3438458 72.46916661 349.36437748 76.37786865 349.38806152 C85.37373191 349.44096913 94.36964698 349.47456739 103.36560059 349.50782013 C112.28333527 349.54098053 121.20095004 349.5818022 130.11858368 349.63594055 C133.97020476 349.65601329 137.8217384 349.66432742 141.67340088 349.67224121 C144.02999187 349.68521078 146.38657992 349.69873067 148.74316406 349.71289062 C150.35007111 349.71141777 150.35007111 349.71141777 151.98944092 349.70991516 C152.97617798 349.71818832 153.96291504 349.72646149 154.97955322 349.73498535 C155.83342747 349.73791847 156.68730171 349.74085159 157.56705093 349.7438736 C160.36155177 350.03806202 162.48361415 350.75962701 165 352 C166.31361698 354.62723396 166.21253909 356.72610561 166.31640625 359.6640625 C166.35830078 360.78554688 166.40019531 361.90703125 166.44335938 363.0625 C166.48267578 364.238125 166.52199219 365.41375 166.5625 366.625 C166.60568359 367.80835938 166.64886719 368.99171875 166.69335938 370.2109375 C166.79967426 373.14050328 166.90170642 376.07015588 167 379 C166.42459473 378.86070068 165.84918945 378.72140137 165.25634766 378.57788086 C148.73508148 374.89141191 130.57747694 375.07667692 115 382 C114.38157227 382.268125 113.76314453 382.53625 113.12597656 382.8125 C98.64057016 389.2471484 85.96818226 399.93721337 77 413 C76.02353516 414.38832031 76.02353516 414.38832031 75.02734375 415.8046875 C58.52225074 440.80083991 52.47870897 473.4297484 58.2578125 502.83984375 C58.50273438 503.88269531 58.74765625 504.92554688 59 506 C59.1453418 506.66918457 59.29068359 507.33836914 59.44042969 508.02783203 C69.49869473 553.79193415 100.60219516 591.37950929 139 617 C192.25207785 650.89317987 257.94566389 662.62087657 319.60913086 649 C362.17169019 639.03489199 400.16330773 617.76875003 432 588 C433.40378906 586.69482422 433.40378906 586.69482422 434.8359375 585.36328125 C440.64003447 579.83863368 445.80399847 573.97889499 450.6875 567.625 C451.23913818 566.90965088 451.79077637 566.19430176 452.35913086 565.45727539 C454.94821017 562.01771476 457.28997923 558.61535752 459.29296875 554.80078125 C461.2637839 551.09023096 463.01152689 547.99781208 466 545 C469.98273381 544.13766701 473.23684279 544.29925016 477.28515625 544.6875 C486.95926933 545.50130552 497.05475068 540.81660383 504.6015625 534.9921875 C514.80212678 526.14758947 522.99002932 515.74495104 525 502 C526.04250253 485.43959088 522.79411497 473.37795288 512.484375 460.0390625 C504.03047841 450.60314762 490.83304235 444.75848951 478.40625 443.69140625 C463.91763157 443.20550746 452.53034695 447.76131442 441.5234375 457.1015625 C431.19145241 466.88066544 424.95805625 479.18489014 424.5625 493.5625 C425.01711471 505.74910711 428.67394832 517.25321832 436.9375 526.4375 C437.618125 527.283125 438.29875 528.12875 439 529 C438.64692053 532.04827831 437.47594407 534.0401594 435.6640625 536.46875 C435.18267822 537.11610107 434.70129395 537.76345215 434.20532227 538.43041992 C433.68381592 539.11338135 433.16230957 539.79634277 432.625 540.5 C432.08480225 541.21196533 431.54460449 541.92393066 430.98803711 542.6574707 C426.43435927 548.58117575 421.62717907 554.14888672 416.42724609 559.52148438 C414.94358254 561.05844409 413.48227723 562.61501765 412.01953125 564.171875 C395.27282225 581.72457535 374.88138387 594.77812228 353 605 C351.31003906 605.80050781 351.31003906 605.80050781 349.5859375 606.6171875 C302.2056455 628.03263564 244.03761107 628.68365186 195.43359375 611.140625 C170.48056172 601.60043823 149.48720205 588.17134597 130 570 C128.89011719 568.97132813 128.89011719 568.97132813 127.7578125 567.921875 C106.80085273 547.78529443 88.73588323 518.28822953 87.69921875 488.5546875 C87.67973256 486.66155459 87.67626915 484.76819988 87.6875 482.875 C87.69313965 481.87017578 87.6987793 480.86535156 87.70458984 479.83007812 C88.04701682 458.60638655 94.7030153 437.8603924 109.375 422.0625 C120.89203024 411.57803109 133.6283223 407.11070723 148.98828125 407.6640625 C153.95327953 407.98333251 158.36828548 409.2368424 163 411 C164.33091426 411.34286457 165.66400079 411.67751743 167 412 C166.99111755 412.93579391 166.98223511 413.87158783 166.9730835 414.83573914 C166.89158229 423.70545534 166.83183692 432.57509441 166.79275131 441.44510174 C166.77198062 446.00400734 166.74385826 450.56260782 166.69824219 455.12133789 C166.65440526 459.53044903 166.63078406 463.93926887 166.62049103 468.34858131 C166.6131669 470.02090851 166.59886701 471.69322189 166.57707977 473.3654232 C166.37766761 489.32227967 169.10972787 503.31593141 180 515.6875 C187.27328277 522.4930994 198.1010552 527.25157764 208 528 C209.20269531 527.93425781 210.40539062 527.86851562 211.64453125 527.80078125 C218.04292728 527.53771514 222.89502761 527.62653105 227.87109375 532.046875 C231.11147386 535.27383218 234.13127081 538.70174097 237.18847656 542.10107422 C250.94428789 556.52057563 273.33262388 565.49063839 292.8984375 566.23828125 C320.89602249 566.80272809 344.43925429 557.77440469 364.92407227 538.46166992 C380.60039515 523.26236447 390.25096982 501.58369347 391.09012032 479.64376831 C391.12221013 477.00482714 391.12378293 474.36763312 391.11352539 471.72851562 C391.11374443 470.23446701 391.11374443 470.23446701 391.1139679 468.7102356 C391.11327534 465.44221767 391.10551386 462.17425788 391.09765625 458.90625 C391.09578974 456.630819 391.09436693 454.3553876 391.09336853 452.07995605 C391.08956174 446.10907876 391.07974723 440.13822603 391.06866455 434.1673584 C391.05841082 428.06730481 391.05386244 421.96724723 391.04882812 415.8671875 C391.03812325 403.91144758 391.021069 391.95572584 391 380 C391.7492424 379.86985504 392.4984848 379.73971008 393.27043152 379.60562134 C394.25650894 379.43106415 395.24258636 379.25650696 396.25854492 379.07666016 C397.72272102 378.81956772 397.72272102 378.81956772 399.21647644 378.55728149 C429.49866267 372.49456939 455.76085946 346.08813029 473 322 C473.40734375 321.43700195 473.8146875 320.87400391 474.234375 320.29394531 C503.62527262 279.2536492 523.9474676 223.74165275 517.53125 172.69140625 C514.18217442 153.53389656 505.04658493 137.11733576 489.546875 125.09765625 C484.20496827 121.44308832 478.64386168 118.86320422 472.625 116.5625 C471.94687256 116.30315674 471.26874512 116.04381348 470.57006836 115.77661133 C466.93744865 114.46602089 463.86625436 113.69398373 460 114 C459.938125 113.01 459.938125 113.01 459.875 112 C458.20804234 106.2847166 454.51046447 101.59508031 449.375 98.5625 C442.59627588 95.4242018 434.97867919 94.6818674 427.68359375 96.61328125 C421.42284978 99.3944728 416.41127331 104.53553643 413.83203125 110.8671875 C411.62233444 119.18726657 412.07331921 127.32412305 416.375 134.83984375 C420.1143888 139.81071396 425.08985063 143.13184934 431 145 C434.64243835 145.3160173 434.64243835 145.3160173 438.5 145.25 C440.43359375 145.25773437 440.43359375 145.25773437 442.40625 145.265625 C445.7882487 145.01565118 447.93846298 144.34042777 451 143 C460.85471834 143.38645954 470.10777722 148.08137024 477 155 C488.88876843 170.67863784 488.77326229 191.21216452 486.31640625 209.953125 C484.31975239 222.91436126 481.03072431 235.53245455 477 248 C476.77618652 248.69609375 476.55237305 249.3921875 476.32177734 250.109375 C467.66635649 276.37944994 452.80887983 300.79762049 434 321 C433.18273437 321.89847656 432.36546875 322.79695313 431.5234375 323.72265625 C415.41507247 340.69678032 395.17170955 350.96207235 371.63671875 351.61914062 C370.35410156 351.64169922 369.07148438 351.66425781 367.75 351.6875 C366.4075211 351.72077789 365.06507189 351.75527662 363.72265625 351.79101562 C360.48185538 351.87261852 357.2412953 351.94205112 354 352 C354.33 351.34 354.66 350.68 355 350 C357.2632204 349.76381187 359.53825957 349.63853843 361.8125 349.5625 C383.38596719 348.48549344 400.62870102 338.76708125 416 324 C416.86109375 323.20207031 417.7221875 322.40414063 418.609375 321.58203125 C453.34565147 288.40185965 474.99336762 238.42328714 476.32495117 190.51831055 C476.34146729 189.68726807 476.3579834 188.85622559 476.375 188 C476.40118408 187.22245361 476.42736816 186.44490723 476.4543457 185.64379883 C476.46990551 180.28834359 475.67947472 175.11078124 472 171 C466.18625898 167.89102434 461.33421046 167.56733105 454.8137207 167.59936523 C453.31489853 167.58889664 453.31489853 167.58889664 451.78579712 167.57821655 C448.49903841 167.55829929 445.21259482 167.55874022 441.92578125 167.55859375 C439.63607438 167.54681887 437.34637517 167.53345437 435.0566864 167.51856995 C429.0396686 167.48242496 423.02271884 167.462192 417.00561523 167.44702148 C407.36420868 167.42216428 397.72295235 167.3826071 388.08168602 167.32512093 C384.71362683 167.3087774 381.34570934 167.30501334 377.97761536 167.30210876 C375.91777296 167.29233482 373.85793281 167.28207193 371.7980957 167.27124023 C370.86034805 167.27379318 369.9226004 167.27634613 368.95643616 167.27897644 C367.66337555 167.26873444 367.66337555 167.26873444 366.3441925 167.25828552 C365.59741399 167.25665122 364.85063547 167.25501692 364.0812273 167.25333309 C361.60269136 166.95163843 360.08086436 166.38522042 358 165 C356.0167843 162.06806082 355.74717867 159.66790901 355.73498535 156.17573547 C355.72671219 155.20720139 355.71843903 154.2386673 355.70991516 153.24078369 C355.71089706 152.18461853 355.71187897 151.12845337 355.71289062 150.0402832 C355.70605759 148.92274155 355.69922455 147.80519989 355.69218445 146.65379333 C355.67859043 144.22569607 355.66954103 141.79757011 355.66447449 139.36944008 C355.65619013 135.52298128 355.63568701 131.67676044 355.61193848 127.83036804 C355.56367503 119.65777979 355.53069607 111.48517042 355.5 103.3125 C355.46443725 93.85867183 355.42228696 84.40497479 355.36405945 74.95125389 C355.34404231 71.16852137 355.33568014 67.38587799 355.32775879 63.60310364 C355.31477928 61.27096233 355.30125793 58.93882396 355.28710938 56.60668945 C355.28809128 55.56064545 355.28907318 54.51460144 355.29008484 53.43685913 C355.1919898 41.78575982 352.70175531 30.36915997 344.6328125 21.4375 C332.98377554 11.18188851 320.57273034 8.86056449 305.56958008 8.82299805 C304.42569824 8.81642685 303.28181641 8.80985565 302.10327148 8.80308533 C298.32535735 8.78340762 294.54748285 8.77170225 290.76953125 8.76171875 C289.47588842 8.75764322 288.1822456 8.7535677 286.84940147 8.74936867 C280.70753472 8.73067695 274.56568769 8.71610565 268.42379838 8.7077567 C261.36145365 8.69799482 254.29942321 8.67169269 247.23718911 8.63125581 C241.09800437 8.59732423 234.95895062 8.58560098 228.81967735 8.58155251 C226.21908117 8.57669354 223.61848818 8.56509942 221.01795387 8.54651451 C217.37084809 8.52206916 213.72455585 8.52309849 210.07739258 8.5300293 C209.013629 8.51721924 207.94986542 8.50440918 206.85386658 8.49121094 C192.88546398 8.58746051 182.42511791 14.27771363 173.5390625 24.84765625 Z " fill="#FDFDF9" transform="translate(0,0)"/>
<path d="M0 0 C4.9205222 3.40651537 7.45131186 6.70657078 10 12 C10 12.99 10 13.98 10 15 C11.051875 15.061875 12.10375 15.12375 13.1875 15.1875 C29.18785386 17.25114988 42.76388526 27.03974454 53 39 C63.94006315 53.64887502 68.41790624 71.00734816 68.3125 89.125 C68.30758545 90.15270508 68.3026709 91.18041016 68.29760742 92.23925781 C68.02195822 110.89293414 65.32053703 129.12808972 60 147 C59.74734375 147.85013672 59.4946875 148.70027344 59.234375 149.57617188 C48.63972601 184.50215935 30.63351145 217.1151824 5.37353516 243.55908203 C4.03338181 244.96498055 2.7098052 246.38662191 1.38671875 247.80859375 C-14.70806416 264.61870035 -35.64730548 277.8500936 -59 281 C-58.99333817 282.24233398 -58.98667633 283.48466797 -58.97981262 284.76464844 C-58.91872028 296.5325524 -58.87389319 308.30042374 -58.84456348 320.06845093 C-58.82897739 326.1169908 -58.80786942 332.16540158 -58.77368164 338.21386719 C-58.74083481 344.06239065 -58.72309407 349.91079075 -58.71536827 355.75939941 C-58.70986988 357.97906432 -58.69913436 360.19872328 -58.68280983 362.41833496 C-58.47007528 392.57133452 -64.53554779 418.28924672 -86.0625 440.5 C-103.05787331 457.51014119 -126.44486599 467.18217775 -150.4375 467.25 C-176.36270571 467.20093963 -197.74948928 457.22857205 -216.41796875 439.59375 C-219 437 -219 437 -220.73828125 434.78125 C-223.48029566 431.32361943 -225.05388798 430.14474885 -229.5234375 429.4609375 C-232.30244944 429.27661701 -235.0791783 429.21162089 -237.86328125 429.15234375 C-250.02219509 428.85715625 -261.17748458 424.63217793 -270.25 416.5 C-278.90508844 407.23941154 -283.35747594 394.56151472 -283.22705078 382.0234375 C-283.22734283 381.27124435 -283.22763489 380.51905121 -283.22793579 379.74406433 C-283.22655584 377.28758721 -283.21105852 374.83142334 -283.1953125 372.375 C-283.19157761 370.66007655 -283.18873289 368.94515096 -283.18673706 367.23022461 C-283.17913809 362.73889163 -283.15952209 358.2476901 -283.1373291 353.75640869 C-283.11678978 349.16444679 -283.10771812 344.57246345 -283.09765625 339.98046875 C-283.07627235 330.98692174 -283.04218201 321.99347184 -283 313 C-284.44634749 312.51288012 -285.89312631 312.02704078 -287.34008789 311.54174805 C-288.14571671 311.27106003 -288.95134552 311.00037201 -289.78138733 310.72148132 C-301.32342983 306.96806902 -315.1032192 307.79717086 -326 313 C-343.30468052 322.21206038 -353.24450382 337.65056327 -359 356 C-364.1023712 374.23375669 -363.79101487 394.00113795 -358 412 C-357.78569336 412.67611328 -357.57138672 413.35222656 -357.35058594 414.04882812 C-350.06206141 436.43425281 -336.30202698 454.35571016 -320 471 C-319.43845215 471.58491211 -318.8769043 472.16982422 -318.29833984 472.77246094 C-285.17891432 506.78295002 -236.29057171 521.9813824 -190 524 C-189.0915332 524.03996094 -188.18306641 524.07992187 -187.24707031 524.12109375 C-152.43255986 525.40623625 -117.42999254 517.24157364 -86.71044922 500.90380859 C-85.20490647 500.10827345 -83.68360766 499.34270919 -82.16015625 498.58203125 C-55.66707791 484.99685875 -32.37355654 462.65122042 -15.19628906 438.63427734 C-14.21954835 437.29992992 -13.16283204 436.02444305 -12.0859375 434.76953125 C-10.81052787 433.0671268 -10.81052787 433.0671268 -11.10546875 431.04296875 C-12.21295573 428.51364259 -13.65271986 426.51961663 -15.3125 424.3125 C-23.27043407 413.19096099 -26.24010943 401.65690131 -25 388 C-22.18139466 373.58629365 -14.1763058 361.3738124 -2.109375 352.9921875 C9.90104183 345.6319577 21.35670167 342.96346911 35.4296875 345.65625 C51.44706644 350.11192376 61.98147729 358.60984785 70.265625 372.75390625 C76.3622924 384.16456077 76.86835258 397.46773571 73.4375 409.875 C68.37906656 424.05983784 58.55086614 435.38411402 45 442 C42.04156487 443.1993656 39.09069149 444.20295711 36 445 C35.23816406 445.20625 34.47632813 445.4125 33.69140625 445.625 C31 446 31 446 27.546875 445.60546875 C23.2025822 445.12723899 20.27405336 445.03127437 16 446 C12.4419815 449.59502612 10.3714133 453.59914307 8.06689453 458.06298828 C6.37194574 461.1402706 4.29190152 463.8677756 2.125 466.625 C1.50262451 467.42369507 1.50262451 467.42369507 0.86767578 468.23852539 C-3.77921888 474.11190724 -8.82698957 479.59051957 -14 485 C-14.87398438 485.92683594 -15.74796875 486.85367187 -16.6484375 487.80859375 C-23.57115977 494.96478026 -31.03830537 501.0495196 -39 507 C-39.55526367 507.4213623 -40.11052734 507.84272461 -40.68261719 508.27685547 C-71.88142444 531.8740632 -108.49854812 546.76958924 -147 553 C-148.13066895 553.19480957 -148.13066895 553.19480957 -149.28417969 553.39355469 C-205.97528039 562.88193863 -268.96900387 547.13239707 -315.89208984 514.69189453 C-319.72061419 511.94774372 -323.38390145 509.017719 -327 506 C-327.86165771 505.2884375 -327.86165771 505.2884375 -328.74072266 504.5625 C-341.30030968 494.1543394 -352.2719147 483.10543777 -362 470 C-362.40105957 469.45972168 -362.80211914 468.91944336 -363.21533203 468.36279297 C-386.06263204 437.23178872 -397.94272338 399.61422328 -392.17993164 360.87280273 C-388.79696403 341.90345808 -381.13779699 323.99233818 -369 309 C-368.11441406 307.86884766 -368.11441406 307.86884766 -367.2109375 306.71484375 C-354.78689022 291.72668458 -335.58518687 279.61118518 -315.92895508 277.70166016 C-312.69584817 277.56342282 -309.48585928 277.53186011 -306.25 277.5625 C-305.10547363 277.57152344 -303.96094727 277.58054687 -302.78173828 277.58984375 C-279.18904931 278.07125897 -258.87264919 289.22773444 -242.63671875 306.01953125 C-228.71124488 321.76047431 -223.18486358 338.85619152 -219.55325317 359.10821533 C-214.92178955 384.6463801 -207.40001073 409.21745422 -185.1796875 424.9921875 C-170.81762105 434.06110907 -154.56442723 437.67471716 -137.71875 434.58105469 C-129.64000119 432.63710575 -121.93378905 429.61320643 -115 425 C-114.34 424.59523438 -113.68 424.19046875 -113 423.7734375 C-100.953001 415.72641863 -93.94959907 401.67550857 -90.6265564 387.9276123 C-89.18408106 378.88535541 -89.51391566 369.65027516 -89.48828125 360.515625 C-89.47141318 358.2459009 -89.45326011 355.97618601 -89.43388367 353.70648193 C-89.38660878 347.768584 -89.35665415 341.83072348 -89.33044434 335.8927002 C-89.30052471 329.8190167 -89.2540338 323.74546178 -89.20898438 317.671875 C-89.1232076 305.78131758 -89.05574888 293.8907335 -89 282 C-89.82324265 282.00516632 -90.64648529 282.01033264 -91.49467468 282.01565552 C-92.57497452 282.01967377 -93.65527435 282.02369202 -94.76831055 282.02783203 C-95.83905319 282.03299835 -96.90979584 282.03816467 -98.01298523 282.04348755 C-126.63181618 281.62682981 -151.96794463 260.5895794 -171.02661133 241.39306641 C-209.92374625 201.27487476 -234.41645939 143.22264991 -234.37280273 87.24511719 C-234.01683629 69.59781103 -228.96758098 52.96292873 -218 39 C-217.42765625 38.23945313 -216.8553125 37.47890625 -216.265625 36.6953125 C-207.34113403 25.67318476 -192.7999333 17.46517958 -178.875 15 C-176.7524418 14.64082755 -176.7524418 14.64082755 -175 14 C-173.63215742 11.74858021 -173.63215742 11.74858021 -173 9 C-169.1772001 3.26580015 -164.58848048 0.10080449 -158 -2 C-150.16311841 -3.0924138 -142.59179044 -2.67644001 -136 2 C-130.4738091 7.12463377 -126.40443044 11.80050716 -125.6640625 19.48828125 C-125.5692249 28.7728819 -126.09395655 34.91228011 -132.6875 41.8125 C-140.92499686 47.25235642 -149.23963007 47.94417121 -159 47 C-161.13671875 46.25 -161.13671875 46.25 -162.8125 45.375 C-167.41873286 43.38799759 -170.40378983 44.28097369 -175 46 C-187.35286286 51.42907464 -192.81497667 58.71241512 -198 71 C-209.55551124 105.08427927 -195.78978789 143.46875106 -180.59912109 174.28271484 C-164.99299873 204.85524244 -142.41633233 234.31971296 -110 248 C-109.0203125 248.433125 -108.040625 248.86625 -107.03125 249.3125 C-89.18734546 255.80119256 -65.30947384 254.1474211 -48.234375 246.3046875 C-11.54920032 228.47464432 12.61279096 189.24297507 26.19921875 152.2265625 C35.37516168 125.50213532 44.18126 90.31894481 31.5625 63.5625 C26.7624316 54.19999035 18.97503861 48.61641257 9.1875 45 C4.32169809 43.57246599 0.73880205 44.42039932 -4 46 C-13.14619942 46.77604116 -21.45408712 46.86747619 -29 41 C-34.51270123 35.29164966 -37.28401403 29.62006363 -37.3125 21.625 C-37.15912777 13.61355672 -35.1827822 8.51397995 -29.71484375 2.578125 C-21.59744108 -4.89210434 -9.51520518 -5.31230065 0 0 Z " fill="#0A315A" transform="translate(450,99)"/>
<path d="M0 0 C11.98927992 4.57064961 19.51754118 15.93434658 24.8034668 27.18847656 C28.97453513 36.98933821 31.13205367 47.51800207 33.4375 57.875 C38.2094219 78.79039539 44.91926682 97.18091856 57 115 C40.55764353 115.56988912 25.56537611 113.98710297 12.75 102.5 C4.12811473 93.27493758 -0.35883509 80.61259468 -0.22705078 68.11523438 C-0.22734283 67.3727948 -0.22763489 66.63035522 -0.22793579 65.86541748 C-0.22655612 63.44140426 -0.21106017 61.0177087 -0.1953125 58.59375 C-0.19157751 56.90124682 -0.18873283 55.20874147 -0.18673706 53.51623535 C-0.17913888 49.0840853 -0.15952358 44.65206849 -0.1373291 40.2199707 C-0.11678806 35.68833213 -0.10771776 31.15667181 -0.09765625 26.625 C-0.07627374 17.74994179 -0.04218438 8.87498202 0 0 Z " fill="#00C09E" transform="translate(167,413)"/>
<path d="M0 0 C2.31 0 4.62 0 7 0 C7.09306729 13.04002589 7.16395053 26.07997154 7.20724869 39.1202631 C7.22803952 45.1767311 7.25620062 51.23297028 7.30175781 57.28930664 C7.34552025 63.14431923 7.3692009 68.99911302 7.37950897 74.85427666 C7.3868461 77.07757443 7.40117228 79.30086151 7.42292023 81.52406502 C7.6268851 103.25754541 4.72598221 121.62103583 -11 138 C-17.6391387 143.75122957 -24.80488394 147.8915077 -33 151 C-33.8146875 151.3196875 -34.629375 151.639375 -35.46875 151.96875 C-51.55546034 157.33098678 -69.21457749 154.36460209 -84 147 C-80.56868163 145.85622721 -77.99917872 145.91852485 -74.3828125 145.97265625 C-73.03906532 145.98532881 -71.69531516 145.99768774 -70.3515625 146.00976562 C-68.25445994 146.03429172 -66.15751836 146.06197315 -64.06054688 146.09594727 C-46.24058326 146.36614012 -27.97471443 144.5966719 -14.03125 132.2578125 C-3.62259653 121.25568318 -0.71495791 107.97388595 -0.68115234 93.31787109 C-0.67110672 92.30203949 -0.6610611 91.28620789 -0.65071106 90.23959351 C-0.62008335 86.9175467 -0.60290103 83.59557972 -0.5859375 80.2734375 C-0.56720942 77.95601728 -0.5476348 75.63860377 -0.5272522 73.32119751 C-0.47609837 67.24847377 -0.43638325 61.17572795 -0.39910889 55.10290527 C-0.3589639 48.89537166 -0.30791958 42.68792853 -0.2578125 36.48046875 C-0.16125166 24.32037621 -0.07678375 12.16023239 0 0 Z " fill="#F5F8F6" transform="translate(354,381)"/>
<path d="M0 0 C4.31633181 3.18586395 7.91120739 6.79612218 9.625 11.9375 C10.26036761 19.64523827 10.53317819 25.73769597 5.625 31.9375 C1.12134774 36.42939338 -2.65749719 38.10458321 -9 38.375 C-15.56776461 38.32723444 -19.60228144 36.37455484 -24.375 31.9375 C-28.66052488 26.3127486 -29.24341853 19.82426091 -28.375 12.9375 C-26.41219603 7.12246393 -23.16814967 2.71519498 -17.75390625 -0.25390625 C-11.90287776 -2.24267948 -5.82503719 -1.833808 0 0 Z " fill="#FBFBF8" transform="translate(484.375,476.0625)"/>
<path d="M0 0 C0.99 0.33 1.98 0.66 3 1 C2.99777939 1.96164566 2.99555878 2.92329132 2.99327087 3.91407776 C2.9729692 12.99175625 2.95799403 22.06943012 2.94818783 31.1471262 C2.94297684 35.81366996 2.93591166 40.48019533 2.92456055 45.14672852 C2.91366818 49.65304176 2.90770972 54.15933737 2.90512276 58.66566277 C2.90327994 60.38198054 2.89968141 62.09829739 2.89426994 63.81460762 C2.88697521 66.22481472 2.8860126 68.63494959 2.88647461 71.04516602 C2.88287933 71.74935669 2.87928406 72.45354736 2.87557983 73.17907715 C2.8846299 77.56318583 3.29210428 81.68743083 4 86 C-0.00265967 81.99734033 -0.22586432 75.61755287 -0.24884033 70.18157959 C-0.24164978 69.49968567 -0.23445923 68.81779175 -0.22705078 68.11523438 C-0.22734283 67.3727948 -0.22763489 66.63035522 -0.22793579 65.86541748 C-0.22655612 63.44140426 -0.21106017 61.0177087 -0.1953125 58.59375 C-0.19157751 56.90124682 -0.18873283 55.20874147 -0.18673706 53.51623535 C-0.17913888 49.0840853 -0.15952358 44.65206849 -0.1373291 40.2199707 C-0.11678806 35.68833213 -0.10771776 31.15667181 -0.09765625 26.625 C-0.07627374 17.74994179 -0.04218438 8.87498202 0 0 Z " fill="#11C09A" transform="translate(167,413)"/>
<path d="M0 0 C3.40850089 3.08895393 6.07175673 6.38081591 8.75 10.125 C22.25149129 28.95137851 37.75840103 43.71233187 58 55 C57.01 55.495 57.01 55.495 56 56 C53.7937352 55.00302679 51.77554244 53.95913202 49.6875 52.75 C49.06302979 52.38865967 48.43855957 52.02731934 47.79516602 51.6550293 C40.86951267 47.50872126 34.90395964 42.47510059 29 37 C28.45988281 36.50371094 27.91976563 36.00742187 27.36328125 35.49609375 C18.91361664 27.64854301 11.93629874 19.06683661 5.24560547 9.69140625 C4.11253521 8.15281143 2.89026926 6.68092106 1.66015625 5.21875 C0 3 0 3 0 0 Z " fill="#07244D" transform="translate(278,291)"/>
<path d="M0 0 C2.5076206 3.7614309 1.85326387 4.70374736 1 9 C0.91235509 11.00508412 0.86942978 13.01253376 0.8671875 15.01953125 C0.86589844 16.12361328 0.86460937 17.22769531 0.86328125 18.36523438 C0.86714844 19.50283203 0.87101563 20.64042969 0.875 21.8125 C0.87113281 22.96943359 0.86726562 24.12636719 0.86328125 25.31835938 C0.86457031 26.41599609 0.86585938 27.51363281 0.8671875 28.64453125 C0.86831543 29.64846924 0.86944336 30.65240723 0.87060547 31.68676758 C0.7401206 33.96229116 0.7401206 33.96229116 2 35 C2 37.33333333 2 39.66666667 2 42 C2.309375 43.11375 2.309375 43.11375 2.625 44.25 C2.74875 44.8275 2.8725 45.405 3 46 C2.34 46.99 1.68 47.98 1 49 C0.68217683 47.52196796 0.37111135 46.04248288 0.0625 44.5625 C-0.11152344 43.73878906 -0.28554687 42.91507813 -0.46484375 42.06640625 C-1.81072165 34.35462413 -2.18212486 26.75832701 -2.1875 18.9375 C-2.19974609 17.99583984 -2.21199219 17.05417969 -2.22460938 16.08398438 C-2.23654583 10.36642232 -1.63396539 5.48314869 0 0 Z " fill="#06214E" transform="translate(218,170)"/>
<path d="M0 0 C0.66 0 1.32 0 2 0 C1.34 1.65 0.68 3.3 0 5 C-0.66 5 -1.32 5 -2 5 C-2.11472656 5.54011719 -2.22945312 6.08023438 -2.34765625 6.63671875 C-3.13526572 9.4900345 -4.26230864 12.09595973 -5.4375 14.8125 C-7.28522666 19.17548463 -8.851806 23.40722398 -10 28 C-10.33 28 -10.66 28 -11 28 C-10.47735042 17.54700844 -6.75658292 8.03485537 0 0 Z " fill="#051C48" transform="translate(230,141)"/>
<path d="M0 0 C0.53625 0.144375 1.0725 0.28875 1.625 0.4375 C8.06204309 1.96206284 14.07043184 2.14362042 20.640625 1.83789062 C22.65625 1.77734375 22.65625 1.77734375 26 2 C26.99 3.485 26.99 3.485 28 5 C17.78739713 5.35396698 8.89369653 4.84613188 -1 2 C-0.67 1.34 -0.34 0.68 0 0 Z " fill="#1ABA97" transform="translate(196,523)"/>
<path d="M0 0 C2 2 2 2 2 5 C2.99 5.33 3.98 5.66 5 6 C5.103125 6.94875 5.20625 7.8975 5.3125 8.875 C6.00852332 13.65893491 7.0180691 18.57876953 9 23 C9.99 23.33 10.98 23.66 12 24 C11.34 25.32 10.68 26.64 10 28 C8.89311656 25.50117273 7.78944889 23.00100271 6.6875 20.5 C6.37876953 19.80390625 6.07003906 19.1078125 5.75195312 18.390625 C0 5.3125 0 5.3125 0 0 Z " fill="#061B4A" transform="translate(227,249)"/>
<path d="M0 0 C3.70952763 3.36911303 5.25161041 7.42328065 7.25 11.9375 C7.81460937 13.15469727 7.81460937 13.15469727 8.390625 14.39648438 C8.74125 15.18216797 9.091875 15.96785156 9.453125 16.77734375 C9.77442383 17.49140381 10.09572266 18.20546387 10.42675781 18.94116211 C11.09545038 21.34281645 10.80056851 22.6706863 10 25 C9.34 24.67 8.68 24.34 8 24 C7.86722656 23.32195312 7.73445313 22.64390625 7.59765625 21.9453125 C6.64128216 17.23220097 4.44257868 13.05824331 2.43945312 8.70703125 C0 3.30285973 0 3.30285973 0 0 Z " fill="#06294F" transform="translate(258,251)"/>
<path d="M0 0 C11.22 0.33 22.44 0.66 34 1 C34 1.33 34 1.66 34 2 C26.08 2.33 18.16 2.66 10 3 C10 3.66 10 4.32 10 5 C5.84585747 3.77263971 3.56311466 2.672336 0 0 Z " fill="#F0F9F8" transform="translate(270,527)"/>
<path d="M0 0 C0 0.99 0 1.98 0 3 C-1.32110073 3.86914522 -2.64888538 4.72906972 -4 5.55078125 C-8.47184414 8.79112143 -12.17377615 13.03766542 -16 17 C-16.66 16.67 -17.32 16.34 -18 16 C-12.58055384 9.5171637 -7.32967201 4.26264614 0 0 Z " fill="#07214A" transform="translate(249,123)"/>
<path d="M0 0 C0 3.34419152 -0.47519394 4.06840321 -2.375 6.6875 C-2.81585938 7.31011719 -3.25671875 7.93273437 -3.7109375 8.57421875 C-4.13632812 9.04472656 -4.56171875 9.51523438 -5 10 C-5.66 10 -6.32 10 -7 10 C-7.33 10.66 -7.66 11.32 -8 12 C-7.55396127 6.94489444 -5.35299176 4.59833262 -2 1 C-1.34 0.67 -0.68 0.34 0 0 Z " fill="#05234B" transform="translate(284,101)"/>
<path d="M0 0 C3.03852705 1.40976705 5.5939595 3.08870228 8.25 5.125 C8.95640625 5.66382813 9.6628125 6.20265625 10.390625 6.7578125 C10.92171875 7.16773438 11.4528125 7.57765625 12 8 C11.01 8.33 10.02 8.66 9 9 C8.34 8.67 7.68 8.34 7 8 C7 7.34 7 6.68 7 6 C6.21625 5.7525 5.4325 5.505 4.625 5.25 C1.67682892 3.84610901 1.0975223 2.99324263 0 0 Z " fill="#213152" transform="translate(137,578)"/>
<path d="M0 0 C6.52307692 0.49230769 6.52307692 0.49230769 8.9375 3.0625 C9.288125 3.701875 9.63875 4.34125 10 5 C6.08788267 3.84414715 3.1254959 2.64465038 0 0 Z " fill="#E5F0F0" transform="translate(270,527)"/>
<path d="M0 0 C2 2 2 2 2.125 5.625 C2.08375 6.73875 2.0425 7.8525 2 9 C1.01 8.67 0.02 8.34 -1 8 C-0.67 5.36 -0.34 2.72 0 0 Z " fill="#1E375D" transform="translate(59,454)"/>
<path d="M0 0 C2.64 0 5.28 0 8 0 C5.03312999 1.64826111 2.34373475 2.44271087 -1 3 C-0.67 2.01 -0.34 1.02 0 0 Z " fill="#BBDED9" transform="translate(355,349)"/>
</svg>
